HIERARCHY
ROOT Hips
{
	OFFSET 0.000000 0.000000 0.000000
	CHANNELS 6 Xposition Yposition Zposition Zrotation Yrotation Xrotation 
	JOINT LHipJoint
	{
		OFFSET 0.000000 0.000000 0.000000
		CHANNELS 3 Zrotation Yrotation Xrotation
		JOINT LeftUpLeg
		{
			OFFSET 1.363060 -1.794630 0.839290
			CHANNELS 3 Zrotation Yrotation Xrotation
			JOINT LeftLeg
			{
				OFFSET 2.448110 -6.726130 0.000000
				CHANNELS 3 Zrotation Yrotation Xrotation
				JOINT LeftFoot
				{
					OFFSET 2.562200 -7.039590 0.000000
					CHANNELS 3 Zrotation Yrotation Xrotation
					JOINT LeftToeBase
					{
						OFFSET 0.157640 -0.433110 2.322550
						CHANNELS 3 Zrotation Yrotation Xrotation
						End Site
						{
							OFFSET 0.000000 0.000000 0.000000
						}
					}
				}
			}
		}
	}
	JOINT RHipJoint
	{
		OFFSET 0.000000 0.000000 0.000000
		CHANNELS 3 Zrotation Yrotation Xrotation
		JOINT RightUpLeg
		{
			OFFSET -1.305520 -1.794630 0.839290
			CHANNELS 3 Zrotation Yrotation Xrotation
			JOINT RightLeg
			{
				OFFSET -2.542530 -6.985550 0.000000
				CHANNELS 3 Zrotation Yrotation Xrotation
				JOINT RightFoot
				{
					OFFSET -2.568260 -7.056230 0.000000
					CHANNELS 3 Zrotation Yrotation Xrotation
					JOINT RightToeBase
					{
						OFFSET -0.164730 -0.452590 2.363150
						CHANNELS 3 Zrotation Yrotation Xrotation
						End Site
						{
							OFFSET 0.000000 0.000000 0.000000
						}
					}
				}
			}
		}
	}
	JOINT LowerBack
	{
		OFFSET 0.000000 0.000000 0.000000
		CHANNELS 3 Zrotation Yrotation Xrotation
		JOINT Spine
		{
			OFFSET 0.028270 2.035590 -0.193380
			CHANNELS 3 Zrotation Yrotation Xrotation
			JOINT Spine1
			{
				OFFSET 0.056720 2.048850 -0.042750
				CHANNELS 3 Zrotation Yrotation Xrotation
				JOINT Neck
				{
					OFFSET 0.000000 0.000000 0.000000
					CHANNELS 3 Zrotation Yrotation Xrotation
					JOINT Neck1
					{
						OFFSET -0.054170 1.746240 0.172020
						CHANNELS 3 Zrotation Yrotation Xrotation
						JOINT Head
						{
							OFFSET 0.104070 1.761360 -0.123970
							CHANNELS 3 Zrotation Yrotation Xrotation
							End Site
							{
								OFFSET 0.000000 0.000000 0.000000
							}
						}
					}
				}
				JOINT LeftShoulder
				{
					OFFSET 0.000000 0.000000 0.000000
					CHANNELS 3 Zrotation Yrotation Xrotation
					JOINT LeftArm
					{
						OFFSET 3.362410 1.200890 -0.311210
						CHANNELS 3 Zrotation Yrotation Xrotation
						JOINT LeftForeArm
						{
							OFFSET 4.983000 -0.000000 -0.000000
							CHANNELS 3 Zrotation Yrotation Xrotation
							JOINT LeftHand
							{
								OFFSET 3.483560 -0.000000 -0.000000
								CHANNELS 3 Zrotation Yrotation Xrotation
								JOINT LeftFingerBase
								{
									OFFSET 0.000000 0.000000 0.000000
									CHANNELS 3 Zrotation Yrotation Xrotation
									JOINT LeftHandIndex1
									{
										OFFSET 0.715260 -0.000000 -0.000000
										CHANNELS 3 Zrotation Yrotation Xrotation
										End Site
										{
											OFFSET 0.000000 0.000000 0.000000
										}
									}
								}
								JOINT LThumb
								{
									OFFSET 0.000000 0.000000 0.000000
									CHANNELS 3 Zrotation Yrotation Xrotation
									End Site
									{
										OFFSET 0.000000 0.000000 0.000000
									}
								}
							}
						}
					}
				}
				JOINT RightShoulder
				{
					OFFSET 0.000000 0.000000 0.000000
					CHANNELS 3 Zrotation Yrotation Xrotation
					JOINT RightArm
					{
						OFFSET -3.136600 1.374050 -0.404650
						CHANNELS 3 Zrotation Yrotation Xrotation
						JOINT RightForeArm
						{
							OFFSET -5.241900 -0.000000 -0.000000
							CHANNELS 3 Zrotation Yrotation Xrotation
							JOINT RightHand
							{
								OFFSET -3.444170 -0.000000 -0.000000
								CHANNELS 3 Zrotation Yrotation Xrotation
								JOINT RightFingerBase
								{
									OFFSET 0.000000 0.000000 0.000000
									CHANNELS 3 Zrotation Yrotation Xrotation
									JOINT RightHandIndex1
									{
										OFFSET -0.622530 -0.000000 -0.000000
										CHANNELS 3 Zrotation Yrotation Xrotation
										End Site
										{
											OFFSET 0.000000 0.000000 0.000000
										}
									}
								}
								JOINT RThumb
								{
									OFFSET 0.000000 0.000000 0.000000
									CHANNELS 3 Zrotation Yrotation Xrotation
									End Site
									{
										OFFSET 0.000000 0.000000 0.000000
									}
								}
							}
						}
					}
				}
			}
		}
	}
}
MOTION
Frames: 4
Frame Time: 0.008333
7.862017 17.045908 1.871631 83.274311 -89.381688 -75.574049 -11.720330 1.263514 -1.293091 -1.177461 18.623119 -29.681668 -0.325963 2.854916 56.275914 1.902890 12.373497 -6.596638 0.084699 -0.000000 -32.235101 8.837297 -1.892856 2.573439 11.337001 -3.194800 -27.176420 2.375928 -0.517353 16.547459 -1.023920 -5.355730 0.953267 -1.506100 -0.000000 -57.637100 4.070411 -3.410425 -2.875255 0.119609 -3.826333 -4.182966 -7.449015 -3.968007 -3.225078 8.028317 -3.085213 -5.421245 -5.061364 -0.394051 0.555886 0.000000 0.000000 0.000000 -1.068454 0.508367 1.721012 -57.096813 -5.812588 22.009777 -179.278544 -79.193364 -179.967805 -3.824207 3.717453 -0.112255 0.070427 0.383817 0.000000 0.000000 0.000000 0.000000 0.000000 0.000000 0.000000 18.328380 1.340712 2.144593 71.940525 8.922685 9.199205 1.713322 39.631647 -0.010453 -5.009593 8.052168 -0.366025 0.054795 -0.231990 -0.000000 0.000000 0.000000 0.000000 0.000000 0.000000 0.000000 
7.789306 17.076369 1.855920 103.361405 -88.834243 -95.560964 -11.881220 1.156135 -1.287511 -1.611170 18.586959 -29.968597 -0.542948 2.765388 54.101491 1.794668 11.570017 -6.868675 0.018700 -0.000000 -32.336700 8.629056 -1.879708 2.435257 11.020959 -3.237315 -26.373237 2.393817 -0.404312 15.579753 -0.982584 -5.245635 1.169685 -1.513500 0.000000 -57.803000 3.337559 -2.924162 -2.669249 -0.008184 -3.269750 -4.159015 -7.236296 -3.399771 -3.327526 7.533696 -2.726326 -5.182431 -4.978611 -0.389142 0.616825 0.000000 0.000000 0.000000 -1.277157 1.166242 1.629459 -58.559265 -5.996831 21.903457 -179.145386 -78.212084 -179.962670 -4.377182 3.519378 -0.120735 0.086339 0.395197 0.000000 0.000000 0.000000 0.000000 0.000000 0.000000 0.000000 17.298301 2.094415 1.988039 72.330222 9.799340 11.262913 1.579913 42.243654 -0.012259 -5.154488 8.748243 -0.409432 0.054599 -0.255356 0.000000 0.000000 0.000000 0.000000 0.000000 0.000000 0.000000 
7.716298 17.105509 1.842097 111.893594 -88.564263 -103.977288 -11.824129 1.073646 -1.260677 -1.890581 18.431534 -30.163644 -0.754850 2.638440 51.742927 1.709808 10.905430 -7.171598 -0.041900 0.000000 -32.457799 8.630640 -1.826101 2.311608 10.819374 -3.297576 -25.582018 2.408189 -0.301304 14.584161 -0.946418 -5.161027 1.410631 -1.523701 -0.000000 -57.983600 2.896755 -2.427005 -2.494769 -0.084366 -2.728669 -4.134183 -7.038526 -2.841723 -3.399845 7.047966 -2.462502 -4.966728 -4.889722 -0.383876 0.672574 0.000000 0.000000 0.000000 -1.481623 1.863387 1.526478 -59.973166 -6.242853 21.848370 -179.012774 -77.198604 -179.958515 -4.779663 3.356430 -0.124688 0.099111 0.407115 0.000000 0.000000 0.000000 0.000000 0.000000 0.000000 0.000000 16.225548 2.735875 1.807900 72.576803 10.669233 13.129689 1.445522 45.114865 -0.014408 -5.334671 9.431685 -0.457133 0.054867 -0.280265 0.000000 0.000000 0.000000 0.000000 0.000000 0.000000 0.000000 
7.643220 17.133214 1.829950 114.366180 -88.463603 -106.330171 -11.685523 0.960726 -1.205466 -2.066401 18.111535 -30.238390 -0.945727 2.459825 49.202062 1.647341 10.380693 -7.479409 -0.095000 -0.000000 -32.593200 8.711088 -1.784900 2.188393 10.673298 -3.439714 -24.807465 2.427184 -0.213849 13.573623 -0.915191 -5.082335 1.652777 -1.530500 0.000000 -58.179201 2.574872 -1.963292 -2.345653 -0.137909 -2.232083 -4.108524 -6.848930 -2.325417 -3.450918 6.580429 -2.289229 -4.760298 -4.797629 -0.378614 0.726798 0.000000 0.000000 0.000000 -1.666037 2.529809 1.415032 -61.336869 -6.475483 21.811303 -178.882148 -76.137330 -179.955507 -5.017195 3.216106 -0.124309 0.108402 0.419572 -0.000000 0.000000 0.000000 0.000000 0.000000 0.000000 0.000000 15.136318 3.245155 1.609357 72.686025 11.529312 14.775284 1.308942 48.212371 -0.016939 -5.532651 10.082613 -0.507231 0.055180 -0.306591 0.000000 0.000000 0.000000 0.000000 0.000000 0.000000 0.000000 
